<?xml version="1.0" standalone="no"?>
<!DOCTYPE svg PUBLIC "-//W3C//DTD SVG 20010904//EN"
 "http://www.w3.org/TR/2001/REC-SVG-20010904/DTD/svg10.dtd">
<svg version="1.0" xmlns="http://www.w3.org/2000/svg"
 width="630.000000pt" height="630.000000pt" viewBox="0 0 630.000000 630.000000"
 preserveAspectRatio="xMidYMid meet">

<g transform="translate(0.000000,630.000000) scale(0.100000,-0.100000)"
fill="#000000" stroke="none">
<path d="M0 3150 l0 -3150 3150 0 3150 0 0 3150 0 3150 -3150 0 -3150 0 0
-3150z m1443 222 c52 -23 108 -79 135 -132 l20 -41 4 75 c4 91 22 116 80 116
40 0 40 0 146 -120 l31 -35 1 50 c0 29 7 60 15 72 19 27 77 40 110 25 29 -13
49 -79 42 -134 -6 -41 7 -52 19 -15 13 42 72 103 129 132 48 24 70 29 134 29
82 0 123 -14 174 -62 30 -29 35 -66 12 -99 -22 -31 -57 -36 -110 -13 -69 30
-126 27 -163 -8 -83 -77 -22 -211 91 -200 30 3 32 6 38 52 9 83 85 115 143 61
24 -22 26 -30 26 -108 0 -95 -5 -106 -70 -138 -35 -19 -61 -23 -130 -24 -74 0
-93 4 -142 28 -57 28 -111 83 -135 137 -11 24 -12 23 -12 -16 -2 -99 -28 -144
-85 -144 -51 0 -77 27 -84 85 -4 38 -13 58 -38 85 -19 19 -34 38 -34 43 0 4
-4 7 -10 7 -6 0 -10 -30 -10 -69 0 -112 -23 -151 -87 -151 -57 1 -83 44 -83
138 l0 57 -19 -40 c-56 -123 -203 -189 -335 -151 -73 22 -113 48 -152 100 -43
56 -57 107 -52 180 10 120 92 215 213 247 44 12 141 2 188 -19z m1630 3 c74
-31 106 -93 72 -142 -21 -30 -63 -34 -118 -11 -94 41 -177 8 -192 -76 -13 -68
46 -136 118 -136 47 0 57 9 57 54 0 55 17 76 65 83 33 4 45 1 68 -21 25 -23
27 -30 27 -110 0 -93 -5 -103 -69 -135 -87 -45 -224 -35 -308 23 -193 132
-142 419 85 483 53 14 145 9 195 -12z m941 -8 c79 -52 99 -195 36 -252 -20
-18 -20 -18 7 -54 15 -20 33 -42 39 -48 7 -7 18 -29 24 -48 10 -30 9 -40 -5
-61 -20 -32 -58 -46 -88 -35 -13 5 -44 33 -68 63 -24 29 -47 55 -51 56 -5 2
-8 10 -8 18 0 8 -4 14 -10 14 -5 0 -10 -20 -10 -45 0 -51 -20 -99 -45 -109
-35 -13 -82 -6 -101 15 -17 19 -19 41 -22 238 -4 271 -7 264 125 271 98 6 142
0 177 -23z m-2959 -2 c51 -50 21 -120 -56 -133 l-44 -8 -5 -166 c-5 -152 -7
-169 -25 -182 -28 -21 -78 -20 -106 3 -23 19 -24 23 -24 184 l0 165 -48 5
c-26 2 -56 12 -67 22 -29 26 -26 80 5 110 24 24 27 25 185 25 158 0 161 -1
185 -25z m2433 8 c24 -20 212 -408 212 -436 0 -27 -54 -77 -83 -77 -28 0 -77
35 -77 56 0 11 -19 14 -92 14 l-93 0 -28 -35 c-33 -41 -70 -46 -111 -14 -38
30 -34 72 18 182 24 50 66 140 94 199 28 58 59 111 69 117 27 16 68 13 91 -6z
m977 0 c57 -19 126 -83 151 -140 26 -59 23 -167 -5 -223 -30 -58 -66 -97 -116
-123 -33 -18 -62 -22 -166 -25 -145 -4 -163 1 -179 56 -13 49 -13 380 1 419 5
17 20 35 32 41 36 18 226 14 282 -5z m499 -4 c18 -14 26 -30 26 -52 0 -57 -30
-77 -117 -77 -52 0 -59 -2 -60 -20 -2 -17 4 -20 43 -20 82 0 122 -73 69 -125
-19 -19 -35 -25 -70 -25 -39 0 -46 -3 -43 -17 3 -14 17 -19 70 -23 85 -6 110
-27 106 -84 -4 -57 -27 -66 -165 -66 -61 0 -119 3 -128 6 -38 15 -45 55 -45
269 0 205 0 206 25 230 23 24 30 25 143 25 106 0 122 -2 146 -21z m199 -2 c12
-12 43 -46 68 -75 l46 -53 6 58 c4 43 12 63 28 76 28 23 81 22 110 -2 23 -19
24 -23 27 -212 4 -213 0 -251 -29 -280 -20 -20 -69 -25 -99 -9 -20 11 -40 60
-40 99 0 16 -15 40 -42 68 -23 24 -45 43 -48 43 -3 0 -3 -30 -2 -66 4 -78 -2
-108 -28 -134 -26 -26 -80 -26 -107 -1 -19 18 -22 36 -28 187 -10 213 -4 283
25 306 31 25 86 23 113 -5z m483 -323 c105 -50 73 -204 -42 -204 -34 0 -51 6
-76 29 -28 25 -33 36 -33 74 0 35 6 52 25 72 43 47 74 54 126 29z"/>
<path d="M1253 3228 c-38 -28 -53 -57 -53 -105 0 -42 33 -97 68 -112 61 -28
142 3 168 64 18 44 18 59 -3 102 -33 70 -119 94 -180 51z"/>
<path d="M3865 3240 c-9 -28 2 -40 35 -40 29 0 44 19 34 45 -9 23 -61 19 -69
-5z"/>
<path d="M3422 3115 c-18 -38 -15 -45 18 -45 17 0 30 4 30 10 0 15 -23 60 -30
60 -4 0 -12 -11 -18 -25z"/>
<path d="M4300 3125 l0 -115 56 0 c50 0 59 3 90 34 26 26 34 42 34 70 0 79
-51 126 -135 126 l-45 0 0 -115z"/>
<path d="M5560 3023 c-67 -34 -64 -130 6 -159 30 -13 42 -13 66 -3 60 24 77
96 36 143 -31 34 -66 40 -108 19z m64 -23 c26 -10 36 -43 16 -55 -7 -4 -6 -13
1 -26 17 -33 -1 -36 -26 -5 l-24 30 -6 -27 c-11 -43 -25 -21 -25 39 0 59 9 65
64 44z"/>
<path d="M5590 2970 c0 -5 7 -10 15 -10 8 0 15 5 15 10 0 6 -7 10 -15 10 -8 0
-15 -4 -15 -10z"/>
</g>
</svg>
